<svg xmlns="http://www.w3.org/2000/svg" width="1600" height="920" viewBox="0 0 1600 920" role="img" aria-labelledby="title desc">
<title id="title">&#x41A;&#x43E;&#x43E;&#x440;&#x434;&#x438;&#x43D;&#x430;&#x442;&#x44B; SVG &#x2192; &#x43F;&#x440;&#x43E;&#x435;&#x43A;&#x446;&#x438;&#x44F; &#x2192; &#x43F;&#x438;&#x43A;&#x441;&#x435;&#x43B;&#x438;</title>
<desc id="desc">&#x41A;&#x43E;&#x43E;&#x440;&#x434;&#x438;&#x43D;&#x430;&#x442;&#x44B; &#x440;&#x438;&#x441;&#x443;&#x43D;&#x43A;&#x430; &#x43F;&#x440;&#x43E;&#x435;&#x446;&#x438;&#x438;&#x440;&#x443;&#x44E;&#x442;&#x441;&#x44F; &#x43D;&#x430; &#x43E;&#x431;&#x43B;&#x430;&#x441;&#x442;&#x44C; &#x432;&#x451;&#x440;&#x441;&#x442;&#x43A;&#x438; &#x438; &#x441;&#x442;&#x430;&#x43D;&#x43E;&#x432;&#x44F;&#x442;&#x441;&#x44F; &#x43F;&#x438;&#x43A;&#x441;&#x435;&#x43B;&#x44F;&#x43C;&#x438; &#x43F;&#x440;&#x438; &#x440;&#x430;&#x441;&#x442;&#x435;&#x440;&#x438;&#x437;&#x430;&#x446;&#x438;&#x438;.</desc>
<defs><linearGradient id="bg" x1="0" y1="0" x2="1" y2="1"><stop offset="0%" stop-color="#0b1220"/><stop offset="100%" stop-color="#172554"/></linearGradient><marker id="a" markerWidth="16" markerHeight="16" refX="14" refY="6" orient="auto"><path d="M0 0L14 6 0 12Z" fill="#93c5fd"/></marker><style>text{font-family:"DejaVu Sans",sans-serif;font-weight:700;fill:#f8fafc}.title{font-size:54px}.h{font-size:40px}.p{font-size:30px}.mono{font-family:monospace;font-size:30px;fill:#bfdbfe}</style></defs>
<rect width="1600" height="920" fill="url(#bg)"/><text class="title" x="64" y="136">&#x41A;&#x43E;&#x43E;&#x440;&#x434;&#x438;&#x43D;&#x430;&#x442;&#x44B; &#x2192; &#x43F;&#x440;&#x43E;&#x435;&#x43A;&#x446;&#x438;&#x44F; &#x2192; &#x43F;&#x438;&#x43A;&#x441;&#x435;&#x43B;&#x438;</text>
<rect x="64" y="200" width="420" height="580" rx="28" fill="#0f172a" stroke="#64748b" stroke-width="3"/><text class="h" x="96" y="280">1. &#x41A;&#x43E;&#x43E;&#x440;&#x434;&#x438;&#x43D;&#x430;&#x442;&#x44B;</text><rect x="112" y="320" width="324" height="240" rx="18" fill="#1e293b" stroke="#38bdf8" stroke-width="4" stroke-dasharray="10 8"/><text class="mono" x="140" y="390">viewBox</text><text class="mono" x="140" y="435">0 0 24 24</text><path d="M170 470h200v70H170z" fill="none" stroke="#7dd3fc" stroke-width="6"/><text class="p" x="96" y="640">&#x427;&#x438;&#x441;&#x43B;&#x430; &#x432; d, cx, x</text><text class="p" x="96" y="690">&#x435;&#x434;&#x438;&#x43D;&#x438;&#x446;&#x44B; viewBox.</text>
<line x1="520" y1="490" x2="600" y2="490" stroke="#93c5fd" stroke-width="8" marker-end="url(#a)"/><rect x="620" y="200" width="420" height="580" rx="28" fill="#0f172a" stroke="#64748b" stroke-width="3"/><text class="h" x="652" y="280">2. &#x41F;&#x440;&#x43E;&#x435;&#x43A;&#x446;&#x438;&#x44F;</text><rect x="668" y="340" width="324" height="200" rx="18" fill="#172554" stroke="#60a5fa" stroke-width="4"/><text class="mono" x="700" y="410">CSS / &#x43E;&#x431;&#x43B;&#x430;&#x441;&#x442;&#x44C;</text><rect x="720" y="440" width="220" height="70" fill="none" stroke="#93c5fd" stroke-width="6"/><text class="p" x="652" y="640">&#x414;&#x432;&#x438;&#x436;&#x43E;&#x43A; &#x43D;&#x430;&#x43A;&#x43B;&#x430;&#x434;&#x44B;&#x432;&#x430;&#x435;&#x442;</text><text class="p" x="652" y="690">&#x43E;&#x431;&#x43B;&#x430;&#x441;&#x442;&#x44C; &#x43D;&#x430; &#x44D;&#x43A;&#x440;&#x430;&#x43D;.</text>
<line x1="1070" y1="490" x2="1150" y2="490" stroke="#93c5fd" stroke-width="8" marker-end="url(#a)"/><rect x="1170" y="200" width="366" height="580" rx="28" fill="#0f172a" stroke="#64748b" stroke-width="3"/><text class="h" x="1202" y="280">3. &#x41F;&#x438;&#x43A;&#x441;&#x435;&#x43B;&#x438;</text><g transform="translate(1230 340)"><rect width="34" height="34" fill="#38bdf8"/><rect x="40" width="34" height="34" fill="#38bdf8" opacity=".75"/><rect x="80" width="34" height="34" fill="#38bdf8" opacity=".55"/><rect y="40" width="34" height="34" fill="#38bdf8" opacity=".75"/><rect x="40" y="40" width="34" height="34" fill="#38bdf8"/><rect x="80" y="40" width="34" height="34" fill="#38bdf8" opacity=".7"/><rect y="80" width="34" height="34" fill="#38bdf8" opacity=".55"/><rect x="40" y="80" width="34" height="34" fill="#38bdf8" opacity=".75"/><rect x="80" y="80" width="34" height="34" fill="#38bdf8" opacity=".9"/><rect x="140" y="10" width="130" height="130" fill="none" stroke="#fbbf24" stroke-width="5"/><text class="mono" x="170" y="90">PNG</text></g><text class="p" x="1202" y="640">&#x420;&#x430;&#x441;&#x442;&#x435;&#x440;&#x438;&#x437;&#x430;&#x446;&#x438;&#x44F;</text><text class="p" x="1202" y="690">&#x438; &#x442;&#x43E;&#x43B;&#x44C;&#x43A;&#x43E;.</text>
</svg>
